# xmcd
#
# Track frame offsets:
#	150
#	16907
#	34670
#	51865
#	71930
#	89577
#	104975
#	123505
#	143505
#	162662
#	180010
#	201735
#	222915
#	238725
#	255112
#	271765
#	293365
#
# Disc length: 4161 seconds
#
# Revision: 1
# Processed by: cddbd v1.5.1PL0 Copyright (c) Steve Scherf et al.
# Submitted via: CDex 1.50Beta5
#
DISCID=f9103f11
DTITLE=Various Artist - NEW MUSIC BEST COLLECTION 06
DYEAR=1900
DGENRE=Folk
TTITLE0=荒井由実/あの日にかえりたい
TTITLE1=荒井由実/やさしさに包まれたなら
TTITLE2=ハイ・ファイ・セット/冷たい雨
TTITLE3=ハイ・ファイ・セット/フィーリング
TTITLE4=サーカス/Mr.サマータイム
TTITLE5=サーカス/アメリカン・フィーリング
TTITLE6=YMO/君に、胸キュン
TTITLE7=YMO/RYDEEN
TTITLE8=YMO/テクノポリス
TTITLE9=シーナ&ザ・ロケット/ユー・メイ・ドリーム
TTITLE10=吉田美奈子/愛は思うまま
TTITLE11=三好鉄生/涙をふいて
TTITLE12=ブレッド&バター/あの頃のまま
TTITLE13=荒井由実/中央フリーウェイ
TTITLE14=荒井由実/ベルベット・イースター
TTITLE15=荒井由実/翳りゆく部屋
TTITLE16=荒井由実/卒業写真
EXTD=
EXTT0=
EXTT1=
EXTT2=
EXTT3=
EXTT4=
EXTT5=
EXTT6=
EXTT7=
EXTT8=
EXTT9=
EXTT10=
EXTT11=
EXTT12=
EXTT13=
EXTT14=
EXTT15=
EXTT16=
PLAYORDER=
